<svg width="32" height="32" viewBox="0 0 32 32" fill="none" xmlns="http://www.w3.org/2000/svg">
<path fill-rule="evenodd" clip-rule="evenodd" d="M27.014 24.6481C28.9269 22.211 29.9774 19.2083 30.0009 16.1103C30.0244 13.0122 29.0197 9.9939 27.144 7.52808C25.7602 5.70758 23.9516 4.25375 21.8762 3.29368C19.8008 2.33361 17.5218 1.89653 15.2385 2.02064C12.9551 2.14475 10.7369 2.82628 8.77782 4.00565C6.8187 5.18502 5.1783 6.82632 4 8.78608V4.00008H2V11.0001L3 12.0001H10V10.0001H5.622C6.95807 7.69031 9.02496 5.89096 11.4967 4.88578C13.9685 3.88059 16.7046 3.72676 19.2735 4.44853C21.8424 5.1703 24.0979 6.72661 25.6845 8.87206C27.2711 11.0175 28.0984 13.63 28.036 16.2977C27.9735 18.9653 27.025 21.5363 25.3398 23.6052C23.6546 25.674 21.3287 27.1232 18.7289 27.724C16.1291 28.3249 13.4032 28.0432 10.9811 26.9235C8.55906 25.8039 6.57858 23.9098 5.352 21.5401L3.578 22.4641C4.65825 24.5419 6.24248 26.3156 8.18563 27.6226C10.1288 28.9297 12.3688 29.7285 14.7005 29.9458C17.0323 30.1631 19.3813 29.792 21.5325 28.8664C23.6837 27.9409 25.5684 26.4905 27.014 24.6481ZM20.292 22.7081L21.708 21.2941L16 15.5841V8.00008H14V16.0001L14.292 16.7081L20.292 22.7081Z" fill="#8DD1FF"/>
</svg>
